<?plantuml 1.2026.2beta3?><svg xmlns="http://www.w3.org/2000/svg" xmlns:xlink="http://www.w3.org/1999/xlink" contentStyleType="text/css" data-diagram-type="CLASS" height="567px" preserveAspectRatio="none" style="width:345px;height:567px;background:#FFFFFF;" version="1.1" viewBox="0 0 345 567" width="345px" zoomAndPan="magnify"><defs/><g><!--class User--><g class="entity" data-qualified-name="User" data-source-line="2" id="ent0002"><rect fill="#F1F1F1" height="96.8906" rx="2.5" ry="2.5" style="stroke:#181818;stroke-width:0.5;" width="116.6514" x="99.22" y="116"/><ellipse cx="137.9535" cy="132" fill="#ADD1B2" rx="11" ry="11" style="stroke:#181818;stroke-width:1;"/><path d="M140.9223,137.6406 Q140.3442,137.9375 139.7035,138.0781 Q139.0629,138.2344 138.3598,138.2344 Q135.8598,138.2344 134.5317,136.5937 Q133.2192,134.9375 133.2192,131.8125 Q133.2192,128.6875 134.5317,127.0312 Q135.8598,125.375 138.3598,125.375 Q139.0629,125.375 139.7035,125.5312 Q140.3598,125.6875 140.9223,125.9844 L140.9223,128.7031 Q140.2973,128.125 139.7035,127.8594 Q139.1098,127.5781 138.4848,127.5781 Q137.141,127.5781 136.4535,128.6562 Q135.766,129.7187 135.766,131.8125 Q135.766,133.9062 136.4535,134.9844 Q137.141,136.0469 138.4848,136.0469 Q139.1098,136.0469 139.7035,135.7812 Q140.2973,135.5 140.9223,134.9219 L140.9223,137.6406 Z " fill="#000000"/><text fill="#000000" font-family="sans-serif" font-size="14" lengthAdjust="spacing" textLength="31.9102" x="157.2277" y="136.8467">User</text><line style="stroke:#181818;stroke-width:0.5;" x1="100.22" x2="214.8714" y1="148" y2="148"/><g data-visibility-modifier="PRIVATE_FIELD"><rect fill="none" height="6" style="stroke:#C82930;stroke-width:1;" width="6" x="107.22" y="158.6484"/></g><text fill="#000000" font-family="sans-serif" font-size="14" lengthAdjust="spacing" textLength="57.3467" x="119.22" y="164.9951">id: UUID</text><g data-visibility-modifier="PRIVATE_FIELD"><rect fill="none" height="6" style="stroke:#C82930;stroke-width:1;" width="6" x="107.22" y="174.9453"/></g><text fill="#000000" font-family="sans-serif" font-size="14" lengthAdjust="spacing" textLength="90.6514" x="119.22" y="181.292">name: String</text><line style="stroke:#181818;stroke-width:0.5;" x1="100.22" x2="214.8714" y1="188.5937" y2="188.5937"/><g data-visibility-modifier="PUBLIC_METHOD"><ellipse cx="110.22" cy="202.2422" fill="#84BE84" rx="3" ry="3" style="stroke:#038048;stroke-width:1;"/></g><text fill="#000000" font-family="sans-serif" font-size="14" lengthAdjust="spacing" textLength="84.1025" x="119.22" y="205.5889">login(): bool</text></g><!--class Admin--><g class="entity" data-qualified-name="Admin" data-source-line="7" id="ent0003"><rect fill="#F1F1F1" height="48" rx="2.5" ry="2.5" style="stroke:#181818;stroke-width:0.5;" width="76.8643" x="119.12" y="7"/><ellipse cx="134.12" cy="23" fill="#ADD1B2" rx="11" ry="11" style="stroke:#181818;stroke-width:1;"/><path d="M137.0888,28.6406 Q136.5106,28.9375 135.87,29.0781 Q135.2294,29.2344 134.5263,29.2344 Q132.0263,29.2344 130.6981,27.5938 Q129.3856,25.9375 129.3856,22.8125 Q129.3856,19.6875 130.6981,18.0313 Q132.0263,16.375 134.5263,16.375 Q135.2294,16.375 135.87,16.5313 Q136.5263,16.6875 137.0888,16.9844 L137.0888,19.7031 Q136.4638,19.125 135.87,18.8594 Q135.2763,18.5781 134.6513,18.5781 Q133.3075,18.5781 132.62,19.6563 Q131.9325,20.7188 131.9325,22.8125 Q131.9325,24.9063 132.62,25.9844 Q133.3075,27.0469 134.6513,27.0469 Q135.2763,27.0469 135.87,26.7813 Q136.4638,26.5 137.0888,25.9219 L137.0888,28.6406 Z " fill="#000000"/><text fill="#000000" font-family="sans-serif" font-size="14" lengthAdjust="spacing" textLength="44.8643" x="148.12" y="27.8467">Admin</text><line style="stroke:#181818;stroke-width:0.5;" x1="120.12" x2="194.9843" y1="39" y2="39"/><line style="stroke:#181818;stroke-width:0.5;" x1="120.12" x2="194.9843" y1="47" y2="47"/></g><!--class Product--><g class="entity" data-qualified-name="Product" data-source-line="11" id="ent0005"><rect fill="#F1F1F1" height="96.8906" rx="2.5" ry="2.5" style="stroke:#181818;stroke-width:0.5;" width="127.0967" x="7" y="463.78"/><ellipse cx="40.624" cy="479.78" fill="#ADD1B2" rx="11" ry="11" style="stroke:#181818;stroke-width:1;"/><path d="M43.5928,485.4206 Q43.0146,485.7175 42.374,485.8581 Q41.7334,486.0144 41.0303,486.0144 Q38.5303,486.0144 37.2021,484.3738 Q35.8896,482.7175 35.8896,479.5925 Q35.8896,476.4675 37.2021,474.8113 Q38.5303,473.155 41.0303,473.155 Q41.7334,473.155 42.374,473.3113 Q43.0303,473.4675 43.5928,473.7644 L43.5928,476.4831 Q42.9678,475.905 42.374,475.6394 Q41.7803,475.3581 41.1553,475.3581 Q39.8115,475.3581 39.124,476.4363 Q38.4365,477.4988 38.4365,479.5925 Q38.4365,481.6863 39.124,482.7644 Q39.8115,483.8269 41.1553,483.8269 Q41.7803,483.8269 42.374,483.5613 Q42.9678,483.28 43.5928,482.7019 L43.5928,485.4206 Z " fill="#000000"/><text fill="#000000" font-family="sans-serif" font-size="14" lengthAdjust="spacing" textLength="53.71" x="58.7627" y="484.6267">Product</text><line style="stroke:#181818;stroke-width:0.5;" x1="8" x2="133.0967" y1="495.78" y2="495.78"/><g data-visibility-modifier="PRIVATE_FIELD"><rect fill="none" height="6" style="stroke:#C82930;stroke-width:1;" width="6" x="15" y="506.4284"/></g><text fill="#000000" font-family="sans-serif" font-size="14" lengthAdjust="spacing" textLength="57.3467" x="27" y="512.7751">id: UUID</text><g data-visibility-modifier="PRIVATE_FIELD"><rect fill="none" height="6" style="stroke:#C82930;stroke-width:1;" width="6" x="15" y="522.7253"/></g><text fill="#000000" font-family="sans-serif" font-size="14" lengthAdjust="spacing" textLength="90.6514" x="27" y="529.072">name: String</text><g data-visibility-modifier="PRIVATE_FIELD"><rect fill="none" height="6" style="stroke:#C82930;stroke-width:1;" width="6" x="15" y="539.0222"/></g><text fill="#000000" font-family="sans-serif" font-size="14" lengthAdjust="spacing" textLength="101.0967" x="27" y="545.3689">price: Decimal</text><line style="stroke:#181818;stroke-width:0.5;" x1="8" x2="133.0967" y1="552.6706" y2="552.6706"/></g><!--class Order--><g class="entity" data-qualified-name="Order" data-source-line="16" id="ent0006"><rect fill="#F1F1F1" height="96.8906" rx="2.5" ry="2.5" style="stroke:#181818;stroke-width:0.5;" width="135.1904" x="89.95" y="289.89"/><ellipse cx="133.3716" cy="305.89" fill="#ADD1B2" rx="11" ry="11" style="stroke:#181818;stroke-width:1;"/><path d="M136.3404,311.5306 Q135.7623,311.8275 135.1216,311.9681 Q134.481,312.1244 133.7779,312.1244 Q131.2779,312.1244 129.9498,310.4838 Q128.6373,308.8275 128.6373,305.7025 Q128.6373,302.5775 129.9498,300.9213 Q131.2779,299.265 133.7779,299.265 Q134.481,299.265 135.1216,299.4213 Q135.7779,299.5775 136.3404,299.8744 L136.3404,302.5931 Q135.7154,302.015 135.1216,301.7494 Q134.5279,301.4681 133.9029,301.4681 Q132.5591,301.4681 131.8716,302.5463 Q131.1841,303.6088 131.1841,305.7025 Q131.1841,307.7963 131.8716,308.8744 Q132.5591,309.9369 133.9029,309.9369 Q134.5279,309.9369 135.1216,309.6713 Q135.7154,309.39 136.3404,308.8119 L136.3404,311.5306 Z " fill="#000000"/><text fill="#000000" font-family="sans-serif" font-size="14" lengthAdjust="spacing" textLength="40.0313" x="153.6875" y="310.7367">Order</text><line style="stroke:#181818;stroke-width:0.5;" x1="90.95" x2="224.1404" y1="321.89" y2="321.89"/><g data-visibility-modifier="PRIVATE_FIELD"><rect fill="none" height="6" style="stroke:#C82930;stroke-width:1;" width="6" x="97.95" y="332.5384"/></g><text fill="#000000" font-family="sans-serif" font-size="14" lengthAdjust="spacing" textLength="57.3467" x="109.95" y="338.8851">id: UUID</text><g data-visibility-modifier="PRIVATE_FIELD"><rect fill="none" height="6" style="stroke:#C82930;stroke-width:1;" width="6" x="97.95" y="348.8353"/></g><text fill="#000000" font-family="sans-serif" font-size="14" lengthAdjust="spacing" textLength="74.1973" x="109.95" y="355.182">date: Date</text><line style="stroke:#181818;stroke-width:0.5;" x1="90.95" x2="224.1404" y1="362.4838" y2="362.4838"/><g data-visibility-modifier="PUBLIC_METHOD"><ellipse cx="100.95" cy="376.1322" fill="#84BE84" rx="3" ry="3" style="stroke:#038048;stroke-width:1;"/></g><text fill="#000000" font-family="sans-serif" font-size="14" lengthAdjust="spacing" textLength="109.1904" x="109.95" y="379.4789">total(): Decimal</text></g><!--class Payment--><g class="entity" data-qualified-name="Payment" data-source-line="21" id="ent0007"><rect fill="#F1F1F1" height="96.8906" rx="2.5" ry="2.5" style="stroke:#181818;stroke-width:0.5;" width="146.2715" x="192.41" y="463.78"/><ellipse cx="230.9682" cy="479.78" fill="#ADD1B2" rx="11" ry="11" style="stroke:#181818;stroke-width:1;"/><path d="M233.937,485.4206 Q233.3588,485.7175 232.7182,485.8581 Q232.0776,486.0144 231.3745,486.0144 Q228.8745,486.0144 227.5463,484.3738 Q226.2338,482.7175 226.2338,479.5925 Q226.2338,476.4675 227.5463,474.8113 Q228.8745,473.155 231.3745,473.155 Q232.0776,473.155 232.7182,473.3113 Q233.3745,473.4675 233.937,473.7644 L233.937,476.4831 Q233.312,475.905 232.7182,475.6394 Q232.1245,475.3581 231.4995,475.3581 Q230.1557,475.3581 229.4682,476.4363 Q228.7807,477.4988 228.7807,479.5925 Q228.7807,481.6863 229.4682,482.7644 Q230.1557,483.8269 231.4995,483.8269 Q232.1245,483.8269 232.7182,483.5613 Q233.312,483.28 233.937,482.7019 L233.937,485.4206 Z " fill="#000000"/><text fill="#000000" font-family="sans-serif" font-size="14" lengthAdjust="spacing" textLength="61.9199" x="250.2034" y="484.6267">Payment</text><line style="stroke:#181818;stroke-width:0.5;" x1="193.41" x2="337.6815" y1="495.78" y2="495.78"/><g data-visibility-modifier="PRIVATE_FIELD"><rect fill="none" height="6" style="stroke:#C82930;stroke-width:1;" width="6" x="200.41" y="506.4284"/></g><text fill="#000000" font-family="sans-serif" font-size="14" lengthAdjust="spacing" textLength="57.3467" x="212.41" y="512.7751">id: UUID</text><g data-visibility-modifier="PRIVATE_FIELD"><rect fill="none" height="6" style="stroke:#C82930;stroke-width:1;" width="6" x="200.41" y="522.7253"/></g><text fill="#000000" font-family="sans-serif" font-size="14" lengthAdjust="spacing" textLength="120.2715" x="212.41" y="529.072">amount: Decimal</text><g data-visibility-modifier="PRIVATE_FIELD"><rect fill="none" height="6" style="stroke:#C82930;stroke-width:1;" width="6" x="200.41" y="539.0222"/></g><text fill="#000000" font-family="sans-serif" font-size="14" lengthAdjust="spacing" textLength="105.0137" x="212.41" y="545.3689">method: String</text><line style="stroke:#181818;stroke-width:0.5;" x1="193.41" x2="337.6815" y1="552.6706" y2="552.6706"/></g><!--link Admin to User--><g class="link" data-entity-1="ent0003" data-entity-2="ent0002" data-link-type="extension" data-source-line="8" id="lnk4"><path codeLine="8" d="M157.55,55.5 C157.55,72.19 157.55,77.17 157.55,97.65" fill="none" id="Admin-to-User" style="stroke:#181818;stroke-width:1;"/><polygon fill="none" points="157.55,115.65,163.55,97.65,151.55,97.65,157.55,115.65" style="stroke:#181818;stroke-width:1;"/></g><!--link User to Order--><g class="link" data-entity-1="ent0002" data-entity-2="ent0006" data-link-type="association" data-source-line="28" id="lnk8"><path codeLine="28" d="M157.55,213.32 C157.55,237.07 157.55,265.66 157.55,289.41" fill="none" id="User-Order" style="stroke:#181818;stroke-width:1;"/><polygon fill="#000000" points="162.55,256.4564,165.4889,247.4113,159.6111,247.4113,162.55,256.4564" style="stroke:#000000;stroke-width:1;"/><text fill="#000000" font-family="sans-serif" font-size="13" lengthAdjust="spacing" textLength="41.7485" x="171.55" y="255.9569">places</text><text fill="#000000" font-family="sans-serif" font-size="13" lengthAdjust="spacing" textLength="8.271" x="149.0313" y="232.9712">1</text><text fill="#000000" font-family="sans-serif" font-size="13" lengthAdjust="spacing" textLength="23.0356" x="133.0077" y="278.9037">0..*</text></g><!--reverse link Order to Product--><g class="link" data-entity-1="ent0006" data-entity-2="ent0005" data-link-type="aggregation" data-source-line="29" id="lnk9"><path codeLine="29" d="M79.4885,377.3107 C61.6185,389.0807 54.58,397.74 44.55,416.78 C36.94,431.22 38.69,448.12 43.86,463.59" fill="none" id="Order-backto-Product" style="stroke:#181818;stroke-width:1;"/><polygon fill="none" points="89.51,370.71,82.299,370.6698,79.4885,377.3107,86.6994,377.3508,89.51,370.71" style="stroke:#181818;stroke-width:1;"/><polygon fill="#000000" points="47.6416,429.9679,53.8104,422.7293,48.3775,420.4858,47.6416,429.9679" style="stroke:#000000;stroke-width:1;"/><text fill="#000000" font-family="sans-serif" font-size="13" lengthAdjust="spacing" textLength="55.0278" x="58.55" y="429.8469">contains</text><text fill="#000000" font-family="sans-serif" font-size="13" lengthAdjust="spacing" textLength="8.271" x="73.646" y="370.5048">1</text><text fill="#000000" font-family="sans-serif" font-size="13" lengthAdjust="spacing" textLength="23.0356" x="15.4923" y="452.7722">1..*</text></g><!--link Product to Order--><g class="link" data-entity-1="ent0005" data-entity-2="ent0006" data-link-type="association" data-source-line="31" id="lnk11"><path codeLine="31" d="M101.75,463.59 C107.63,453.89 113.5,443.64 118.55,433.78 C126.15,418.94 133.43,402.26 139.59,387.1" fill="none" id="Product-Order" style="stroke:#181818;stroke-width:1;"/><polygon fill="#000000" points="133.7671,420.8648,127.1221,427.6689,132.3906,430.2752,133.7671,420.8648" style="stroke:#000000;stroke-width:1;"/><text fill="#000000" font-family="sans-serif" font-size="13" lengthAdjust="spacing" textLength="53.6948" x="140.55" y="429.8469">listed_in</text><text fill="#000000" font-family="sans-serif" font-size="13" lengthAdjust="spacing" textLength="23.0356" x="81.5231" y="452.7722">0..*</text><text fill="#000000" font-family="sans-serif" font-size="13" lengthAdjust="spacing" textLength="23.0356" x="112.6344" y="406.7364">0..*</text></g><!--link Order to Payment--><g class="link" data-entity-1="ent0006" data-entity-2="ent0007" data-link-type="association" data-source-line="30" id="lnk10"><path codeLine="30" d="M187.63,387.22 C202.55,410.96 220.52,439.56 235.44,463.3" fill="none" id="Order-Payment" style="stroke:#181818;stroke-width:1;"/><polygon fill="#000000" points="223.2104,429.5799,220.8861,420.3577,215.9093,423.4852,223.2104,429.5799" style="stroke:#000000;stroke-width:1;"/><text fill="#000000" font-family="sans-serif" font-size="13" lengthAdjust="spacing" textLength="50.5273" x="229.55" y="429.8469">paid_by</text><text fill="#000000" font-family="sans-serif" font-size="13" lengthAdjust="spacing" textLength="8.271" x="183.1534" y="406.8725">1</text><text fill="#000000" font-family="sans-serif" font-size="13" lengthAdjust="spacing" textLength="24.8066" x="205.8362" y="452.7937">0..1</text></g><?plantuml-src ZL4zRm8n3DtpAwnRw8SEbVM6an0iJ4MgRaOcYS1Iug343AZblpT9xuhQCdInafVdzvwT6MpuQ2C9ihPAEqm9XcGZl2k05iXqC0oRTRqmUjl1cqJYGmQUmOK3ySDZ1_iGdBgExKlZYLMjqBOVVTLJQWQhycpJIDl6OCvQ_c7KmYcIpiZQQl9uStgDvdvIWrBekTQS4WHToVbRO8iNR_bk1lJXp79hAPYtSWpcEzcr3BLCAMX2eS19rSqrYoRF3StBVFxKZ1axE3dKDa6lle122eMrgAnf6Htem8B4FvcZN3vDYRCWajdjBvatDO-EVxqT9R5cb_-Z_mG0?></g></svg>